<?xml version="1.0" encoding="UTF-8" standalone="no"?>
<svg
   xmlns:dc="http://purl.org/dc/elements/1.1/"
   xmlns:cc="http://creativecommons.org/ns#"
   xmlns:rdf="http://www.w3.org/1999/02/22-rdf-syntax-ns#"
   xmlns:svg="http://www.w3.org/2000/svg"
   xmlns="http://www.w3.org/2000/svg"
   xmlns:sodipodi="http://sodipodi.sourceforge.net/DTD/sodipodi-0.dtd"
   xmlns:inkscape="http://www.inkscape.org/namespaces/inkscape"
   viewBox="0 0 512 512"
   version="1.1"
   id="svg100"
   sodipodi:docname="4c.svg"
   inkscape:version="0.92.3 (2405546, 2018-03-11)">
  <metadata
     id="metadata106">
    <rdf:RDF>
      <cc:Work
         rdf:about="">
        <dc:format>image/svg+xml</dc:format>
        <dc:type
           rdf:resource="http://purl.org/dc/dcmitype/StillImage" />
      </cc:Work>
    </rdf:RDF>
  </metadata>
  <defs
     id="defs104" />
  <sodipodi:namedview
     pagecolor="#ffffff"
     bordercolor="#666666"
     borderopacity="1"
     objecttolerance="10"
     gridtolerance="10"
     guidetolerance="10"
     inkscape:pageopacity="0"
     inkscape:pageshadow="2"
     inkscape:window-width="640"
     inkscape:window-height="480"
     id="namedview102"
     showgrid="false"
     inkscape:zoom="0.4609375"
     inkscape:cx="256"
     inkscape:cy="256"
     inkscape:window-x="423"
     inkscape:window-y="110"
     inkscape:window-maximized="0"
     inkscape:current-layer="svg100" />
  <path
     fill="#fff"
     d="M0 0h512v512H0z"
     id="path96" />
  <path
     fill="#000"
     d="M119.436 36c-16.126 0-29.2 17.237-29.2 38.5v363c0 21.263 13.074 38.5 29.2 38.5h275.298c16.126 0 29.198-17.237 29.198-38.5v-363c0-21.263-13.072-38.5-29.198-38.5H119.436zm26.832 8.408v.002h.015c13.587.01 24.442 10.853 24.442 24.442 0 5.71-2.003 10.997-5.266 15.173 1.12-.158 2.232-.31 3.396-.31 13.595 0 24.458 11.157 24.458 24.752 0 13.594-10.863 24.752-24.458 24.752-5.76 0-11.08-2.048-15.294-5.422l12.609 30.193h-40.117l12.42-29.744c-4.12 3.115-9.233 4.973-14.776 4.973-13.594 0-24.752-11.16-24.752-24.754 0-13.595 11.158-24.752 24.752-24.752 1.059 0 2.058.184 3.082.312-3.215-4.16-5.248-9.509-5.248-15.173 0-13.589 11.15-24.434 24.737-24.444zM269.67 179.625h7.726v112.453h27.342v10.104h-27.342v25.32c0 2.219.872 4 2.616 5.348 2.536 1.822 5.468 2.734 8.797 2.734h10.103v8.916H232.94v-8.916h12.243c4.12 0 7.133-.872 9.035-2.615 1.981-1.744 2.972-4.28 2.972-7.608v-23.18h-67.283V290.77l79.764-111.145zm-12.48 32.213l-57.417 80.24h57.416v-80.24zm88.605 142.174h40.117l-12.611 30.193c4.215-3.374 9.535-5.422 15.295-5.422 13.594 0 24.459 11.158 24.459 24.752 0 13.595-10.865 24.752-24.46 24.752-1.163 0-2.275-.152-3.396-.31 3.263 4.176 5.266 9.462 5.266 15.173 0 13.589-10.853 24.433-24.44 24.442h-.017c-13.588-.01-24.735-10.853-24.735-24.442 0-5.665 2.033-11.013 5.248-15.173-1.023.128-2.025.312-3.084.312-13.594 0-24.751-11.159-24.751-24.754 0-13.594 11.157-24.752 24.752-24.752 5.542 0 10.655 1.858 14.775 4.973l-12.418-29.744z"
     id="path98"
     style="fill:#008000" />
</svg>
