<?xml version="1.0" encoding="UTF-8" standalone="no"?>
<svg
   xmlns:dc="http://purl.org/dc/elements/1.1/"
   xmlns:cc="http://creativecommons.org/ns#"
   xmlns:rdf="http://www.w3.org/1999/02/22-rdf-syntax-ns#"
   xmlns:svg="http://www.w3.org/2000/svg"
   xmlns="http://www.w3.org/2000/svg"
   xmlns:sodipodi="http://sodipodi.sourceforge.net/DTD/sodipodi-0.dtd"
   xmlns:inkscape="http://www.inkscape.org/namespaces/inkscape"
   viewBox="0 0 512 512"
   version="1.1"
   id="svg1536"
   sodipodi:docname="4s.svg"
   inkscape:version="0.92.3 (2405546, 2018-03-11)">
  <metadata
     id="metadata1542">
    <rdf:RDF>
      <cc:Work
         rdf:about="">
        <dc:format>image/svg+xml</dc:format>
        <dc:type
           rdf:resource="http://purl.org/dc/dcmitype/StillImage" />
      </cc:Work>
    </rdf:RDF>
  </metadata>
  <defs
     id="defs1540" />
  <sodipodi:namedview
     pagecolor="#ffffff"
     bordercolor="#666666"
     borderopacity="1"
     objecttolerance="10"
     gridtolerance="10"
     guidetolerance="10"
     inkscape:pageopacity="0"
     inkscape:pageshadow="2"
     inkscape:window-width="640"
     inkscape:window-height="480"
     id="namedview1538"
     showgrid="false"
     inkscape:zoom="0.4609375"
     inkscape:cx="256"
     inkscape:cy="256"
     inkscape:window-x="45"
     inkscape:window-y="27"
     inkscape:window-maximized="0"
     inkscape:current-layer="svg1536" />
  <path
     fill="#fff"
     d="M0 0h512v512H0z"
     id="path1532" />
  <path
     fill="#000"
     d="M119.434 36c-16.126 0-29.2 17.237-29.2 38.5v363c0 21.263 13.074 38.5 29.2 38.5h275.3c16.126 0 29.198-17.237 29.198-38.5v-363c0-21.263-13.072-38.5-29.198-38.5h-275.3zm26.654 8.047s46.338 33.838 47.271 63.068c.776 24.287-25.024 32.122-40.775 18.586l13.633 32.653H126.1l13.613-32.635c-15.535 13.88-40.004 5.349-40.756-18.604-.88-28.01 47.13-63.068 47.13-63.068zM269.67 179.625h7.726v112.453h27.34v10.106h-27.34v25.318c0 2.219.872 4.002 2.616 5.35 2.536 1.822 5.468 2.734 8.797 2.734h10.103v8.916h-65.974v-8.916h12.244c4.12 0 7.133-.872 9.035-2.615 1.981-1.744 2.97-4.28 2.97-7.608v-23.18h-67.28v-11.412l79.763-111.146zm-12.483 32.215l-57.416 80.238h57.417V211.84zm88.59 141.808h40.118l-13.633 32.653c15.75-13.536 41.551-5.701 40.775 18.586-.933 29.23-47.271 63.068-47.271 63.068s-48.012-35.059-47.133-63.068c.751-23.953 25.222-32.485 40.758-18.604l-13.614-32.635z"
     id="path1534"
     style="fill:#4d4d4d" />
</svg>
