<?xml version="1.0" encoding="UTF-8" standalone="no"?>
<svg
   xmlns:dc="http://purl.org/dc/elements/1.1/"
   xmlns:cc="http://creativecommons.org/ns#"
   xmlns:rdf="http://www.w3.org/1999/02/22-rdf-syntax-ns#"
   xmlns:svg="http://www.w3.org/2000/svg"
   xmlns="http://www.w3.org/2000/svg"
   xmlns:sodipodi="http://sodipodi.sourceforge.net/DTD/sodipodi-0.dtd"
   xmlns:inkscape="http://www.inkscape.org/namespaces/inkscape"
   viewBox="0 0 512 512"
   version="1.1"
   id="svg308"
   sodipodi:docname="Ad.svg"
   inkscape:version="0.92.3 (2405546, 2018-03-11)">
  <metadata
     id="metadata314">
    <rdf:RDF>
      <cc:Work
         rdf:about="">
        <dc:format>image/svg+xml</dc:format>
        <dc:type
           rdf:resource="http://purl.org/dc/dcmitype/StillImage" />
      </cc:Work>
    </rdf:RDF>
  </metadata>
  <defs
     id="defs312" />
  <sodipodi:namedview
     pagecolor="#ffffff"
     bordercolor="#666666"
     borderopacity="1"
     objecttolerance="10"
     gridtolerance="10"
     guidetolerance="10"
     inkscape:pageopacity="0"
     inkscape:pageshadow="2"
     inkscape:window-width="640"
     inkscape:window-height="480"
     id="namedview310"
     showgrid="false"
     inkscape:zoom="0.4609375"
     inkscape:cx="256"
     inkscape:cy="256"
     inkscape:window-x="45"
     inkscape:window-y="27"
     inkscape:window-maximized="0"
     inkscape:current-layer="svg308" />
  <path
     fill="#fff"
     d="M0 0h512v512H0z"
     id="path304" />
  <path
     fill="#000"
     d="M119.436 36c-16.126 0-29.2 17.237-29.2 38.5v363c0 21.263 13.074 38.5 29.2 38.5h275.298c16.126 0 29.198-17.237 29.198-38.5v-363c0-21.263-13.072-38.5-29.198-38.5H119.436zm26.884 3.717h.002l47.39 58.27-47.39 58.286-47.377-58.287 47.375-58.27zm96.5 125.287h7.963l63.121 160.834c2.536 6.498 7.727 9.748 15.573 9.748h5.468v8.916h-70.134v-8.916h5.587c7.291 0 12.442-.792 15.454-2.377 2.06-1.11 3.09-2.815 3.09-5.113 0-1.347-.278-2.774-.833-4.28l-14.62-37.324h-69.423l-8.2 21.397c-2.14 5.706-3.21 10.222-3.21 13.55 0 3.884 1.782 7.213 5.348 9.987 3.645 2.774 8.916 4.16 15.81 4.16h5.944v8.916h-63.715v-8.916c6.815 0 12.204-1.466 16.166-4.399 3.962-3.011 7.61-8.676 10.937-16.998l59.674-149.185zm-3.447 33.879l-31.502 78.336h62.17l-30.668-78.336zm126.29 153.64l47.392 58.27-47.393 58.287-47.375-58.287 47.375-58.27z"
     id="path306"
     style="fill:#0000ff" />
</svg>
