<?xml version="1.0" encoding="UTF-8" standalone="no"?>
<svg
   xmlns:dc="http://purl.org/dc/elements/1.1/"
   xmlns:cc="http://creativecommons.org/ns#"
   xmlns:rdf="http://www.w3.org/1999/02/22-rdf-syntax-ns#"
   xmlns:svg="http://www.w3.org/2000/svg"
   xmlns="http://www.w3.org/2000/svg"
   xmlns:sodipodi="http://sodipodi.sourceforge.net/DTD/sodipodi-0.dtd"
   xmlns:inkscape="http://www.inkscape.org/namespaces/inkscape"
   viewBox="0 0 512 512"
   version="1.1"
   id="svg1830"
   sodipodi:docname="As.svg"
   inkscape:version="0.92.3 (2405546, 2018-03-11)">
  <metadata
     id="metadata1836">
    <rdf:RDF>
      <cc:Work
         rdf:about="">
        <dc:format>image/svg+xml</dc:format>
        <dc:type
           rdf:resource="http://purl.org/dc/dcmitype/StillImage" />
      </cc:Work>
    </rdf:RDF>
  </metadata>
  <defs
     id="defs1834" />
  <sodipodi:namedview
     pagecolor="#ffffff"
     bordercolor="#666666"
     borderopacity="1"
     objecttolerance="10"
     gridtolerance="10"
     guidetolerance="10"
     inkscape:pageopacity="0"
     inkscape:pageshadow="2"
     inkscape:window-width="640"
     inkscape:window-height="480"
     id="namedview1832"
     showgrid="false"
     inkscape:zoom="0.4609375"
     inkscape:cx="256"
     inkscape:cy="256"
     inkscape:window-x="45"
     inkscape:window-y="27"
     inkscape:window-maximized="0"
     inkscape:current-layer="svg1830" />
  <path
     fill="#fff"
     d="M0 0h512v512H0z"
     id="path1826" />
  <path
     fill="#000"
     d="M119.436 36c-16.126 0-29.2 17.237-29.2 38.5v363c0 21.263 13.074 38.5 29.2 38.5h275.298c16.126 0 29.198-17.237 29.198-38.5v-363c0-21.263-13.072-38.5-29.198-38.5H119.436zm26.654 8.047s46.338 33.838 47.271 63.068c.776 24.287-25.024 32.122-40.775 18.586l13.633 32.653h-40.117l13.613-32.635c-15.535 13.88-40.006 5.349-40.758-18.604-.88-28.01 47.133-63.068 47.133-63.068zm95.646 120.957h7.963l63.121 160.834c2.536 6.498 7.727 9.748 15.573 9.748h5.468v8.916h-70.134v-8.916h5.587c7.291 0 12.442-.792 15.454-2.377 2.06-1.11 3.09-2.813 3.09-5.111 0-1.347-.278-2.774-.833-4.28l-14.62-37.326h-69.423l-8.2 21.397c-2.14 5.706-3.21 10.222-3.21 13.55 0 3.884 1.782 7.213 5.348 9.987 3.645 2.774 8.916 4.16 15.81 4.16h5.944v8.916h-63.715v-8.916c6.815 0 12.204-1.466 16.166-4.399 3.962-3.011 7.61-8.676 10.938-16.998l59.673-149.185zm-3.447 33.879l-31.502 78.338h62.17l-30.668-78.338zm107.49 154.765h40.116l-13.633 32.653c15.75-13.536 41.551-5.701 40.775 18.586-.933 29.23-47.27 63.068-47.27 63.068s-48.011-35.058-47.132-63.068c.751-23.953 25.222-32.485 40.758-18.604l-13.614-32.635z"
     id="path1828"
     style="fill:#4d4d4d" />
</svg>
